HIERARCHY
ROOT Hips
{
	OFFSET 0.000000 0.000000 0.000000
	CHANNELS 6 Xposition Yposition Zposition Zrotation Yrotation Xrotation 
	JOINT LHipJoint
	{
		OFFSET 0.000000 0.000000 0.000000
		CHANNELS 3 Zrotation Yrotation Xrotation
		JOINT LeftUpLeg
		{
			OFFSET 1.363060 -1.794630 0.839290
			CHANNELS 3 Zrotation Yrotation Xrotation
			JOINT LeftLeg
			{
				OFFSET 2.448110 -6.726130 0.000000
				CHANNELS 3 Zrotation Yrotation Xrotation
				JOINT LeftFoot
				{
					OFFSET 2.562200 -7.039590 0.000000
					CHANNELS 3 Zrotation Yrotation Xrotation
					JOINT LeftToeBase
					{
						OFFSET 0.157640 -0.433110 2.322550
						CHANNELS 3 Zrotation Yrotation Xrotation
						End Site
						{
							OFFSET 0.000000 0.000000 0.000000
						}
					}
				}
			}
		}
	}
	JOINT RHipJoint
	{
		OFFSET 0.000000 0.000000 0.000000
		CHANNELS 3 Zrotation Yrotation Xrotation
		JOINT RightUpLeg
		{
			OFFSET -1.305520 -1.794630 0.839290
			CHANNELS 3 Zrotation Yrotation Xrotation
			JOINT RightLeg
			{
				OFFSET -2.542530 -6.985550 0.000000
				CHANNELS 3 Zrotation Yrotation Xrotation
				JOINT RightFoot
				{
					OFFSET -2.568260 -7.056230 0.000000
					CHANNELS 3 Zrotation Yrotation Xrotation
					JOINT RightToeBase
					{
						OFFSET -0.164730 -0.452590 2.363150
						CHANNELS 3 Zrotation Yrotation Xrotation
						End Site
						{
							OFFSET 0.000000 0.000000 0.000000
						}
					}
				}
			}
		}
	}
	JOINT LowerBack
	{
		OFFSET 0.000000 0.000000 0.000000
		CHANNELS 3 Zrotation Yrotation Xrotation
		JOINT Spine
		{
			OFFSET 0.028270 2.035590 -0.193380
			CHANNELS 3 Zrotation Yrotation Xrotation
			JOINT Spine1
			{
				OFFSET 0.056720 2.048850 -0.042750
				CHANNELS 3 Zrotation Yrotation Xrotation
				JOINT Neck
				{
					OFFSET 0.000000 0.000000 0.000000
					CHANNELS 3 Zrotation Yrotation Xrotation
					JOINT Neck1
					{
						OFFSET -0.054170 1.746240 0.172020
						CHANNELS 3 Zrotation Yrotation Xrotation
						JOINT Head
						{
							OFFSET 0.104070 1.761360 -0.123970
							CHANNELS 3 Zrotation Yrotation Xrotation
							End Site
							{
								OFFSET 0.000000 0.000000 0.000000
							}
						}
					}
				}
				JOINT LeftShoulder
				{
					OFFSET 0.000000 0.000000 0.000000
					CHANNELS 3 Zrotation Yrotation Xrotation
					JOINT LeftArm
					{
						OFFSET 3.362410 1.200890 -0.311210
						CHANNELS 3 Zrotation Yrotation Xrotation
						JOINT LeftForeArm
						{
							OFFSET 4.983000 -0.000000 -0.000000
							CHANNELS 3 Zrotation Yrotation Xrotation
							JOINT LeftHand
							{
								OFFSET 3.483560 -0.000000 -0.000000
								CHANNELS 3 Zrotation Yrotation Xrotation
								JOINT LeftFingerBase
								{
									OFFSET 0.000000 0.000000 0.000000
									CHANNELS 3 Zrotation Yrotation Xrotation
									JOINT LeftHandIndex1
									{
										OFFSET 0.715260 -0.000000 -0.000000
										CHANNELS 3 Zrotation Yrotation Xrotation
										End Site
										{
											OFFSET 0.000000 0.000000 0.000000
										}
									}
								}
								JOINT LThumb
								{
									OFFSET 0.000000 0.000000 0.000000
									CHANNELS 3 Zrotation Yrotation Xrotation
									End Site
									{
										OFFSET 0.000000 0.000000 0.000000
									}
								}
							}
						}
					}
				}
				JOINT RightShoulder
				{
					OFFSET 0.000000 0.000000 0.000000
					CHANNELS 3 Zrotation Yrotation Xrotation
					JOINT RightArm
					{
						OFFSET -3.136600 1.374050 -0.404650
						CHANNELS 3 Zrotation Yrotation Xrotation
						JOINT RightForeArm
						{
							OFFSET -5.241900 -0.000000 -0.000000
							CHANNELS 3 Zrotation Yrotation Xrotation
							JOINT RightHand
							{
								OFFSET -3.444170 -0.000000 -0.000000
								CHANNELS 3 Zrotation Yrotation Xrotation
								JOINT RightFingerBase
								{
									OFFSET 0.000000 0.000000 0.000000
									CHANNELS 3 Zrotation Yrotation Xrotation
									JOINT RightHandIndex1
									{
										OFFSET -0.622530 -0.000000 -0.000000
										CHANNELS 3 Zrotation Yrotation Xrotation
										End Site
										{
											OFFSET 0.000000 0.000000 0.000000
										}
									}
								}
								JOINT RThumb
								{
									OFFSET 0.000000 0.000000 0.000000
									CHANNELS 3 Zrotation Yrotation Xrotation
									End Site
									{
										OFFSET 0.000000 0.000000 0.000000
									}
								}
							}
						}
					}
				}
			}
		}
	}
}
MOTION
Frames: 5
Frame Time: 0.008333
0.634162 17.716618 -14.691618 -2.035398 -1.214161 7.357895 -0.831902 0.031098 0.551418 -14.564801 1.535992 -16.845649 0.077175 6.933034 19.109575 -0.855702 5.938910 -2.368614 0.000900 -0.190600 -0.523800 -1.279120 -0.364876 -0.236600 19.717567 3.193538 -16.125241 -0.726220 -7.597555 21.366232 -0.039408 -1.479826 -5.169124 -0.266700 -3.321900 9.176300 1.627321 -0.348063 -0.815678 1.498756 -0.479996 -1.645759 1.010416 -0.603785 8.050127 -3.336961 -0.642441 -10.271307 2.581967 -0.029465 32.925113 0.552600 0.439500 12.533400 9.319194 5.560069 0.475241 -97.559277 -8.987122 38.532291 8.346998 -18.174069 -1.363969 0.009772 -0.706879 -3.668482 25.468456 -4.767209 -1.898200 -7.125000 0.000000 0.000000 -0.850100 25.568200 0.400000 -8.396101 -4.511463 0.177042 95.487955 7.568214 20.661280 -10.350107 22.252520 -2.266280 0.606695 0.840185 31.324229 -21.997993 -23.628304 9.633200 7.125000 0.000000 0.000000 8.112000 -56.223600 -2.243300
0.636273 17.706102 -14.718491 -2.100046 -1.245870 7.488041 -0.808525 -0.002733 0.507705 -14.503986 1.454922 -17.341061 0.146826 7.132278 19.656534 -0.853854 5.934048 -2.518574 0.001382 -0.238837 -0.656260 -1.298170 -0.340393 -0.244597 19.769975 3.302002 -16.547513 -0.773874 -7.730227 21.725366 -0.054792 -1.402048 -5.240224 -0.261739 -3.291267 9.090828 1.704032 -0.346497 -0.549350 1.510752 -0.470493 -1.623358 1.018119 -0.596567 8.004139 -3.330154 -0.621737 -10.292742 2.556583 0.008287 32.602182 0.536522 0.451727 12.406037 9.320095 5.552704 0.474670 -97.506912 -8.965911 38.441910 8.391570 -18.250728 -1.378216 0.012036 -0.707274 -3.883548 25.535762 -4.791946 -1.915376 -7.125000 0.000000 0.000000 -0.799433 25.539261 0.376695 -8.390969 -4.503883 0.174527 95.406302 7.594497 20.641723 -10.387208 22.304929 -2.281006 0.607378 0.840338 31.180219 -22.061190 -23.623215 9.662836 7.125000 0.000000 0.000000 8.039540 -56.232342 -2.224768
0.638711 17.694406 -14.746747 -2.178406 -1.277506 7.632381 -0.781913 -0.038650 0.460275 -14.429273 1.367153 -17.876944 0.224312 7.346582 20.247204 -0.850847 5.925207 -2.684209 0.001905 -0.284844 -0.782640 -1.319627 -0.314439 -0.252942 19.835438 3.419677 -17.004384 -0.825887 -7.872666 22.111373 -0.071264 -1.319323 -5.317984 -0.256678 -3.259375 9.001780 1.795953 -0.342059 -0.275520 1.524356 -0.457174 -1.600000 1.024202 -0.586775 7.958987 -3.323653 -0.601881 -10.322214 2.534413 0.043672 32.265165 0.521395 0.462849 12.275815 9.321066 5.545052 0.473765 -97.455265 -8.953818 38.355456 8.431100 -18.317943 -1.390410 0.014154 -0.707702 -4.109841 25.616843 -4.824382 -1.937485 -7.125000 0.000000 0.000000 -0.738241 25.501441 0.348519 -8.385086 -4.496358 0.171847 95.318013 7.615249 20.611476 -10.423783 22.356703 -2.295464 0.608042 0.840851 31.019749 -22.129341 -23.624091 9.697175 7.125000 0.000000 0.000000 7.964486 -56.248761 -2.207003
0.641452 17.681302 -14.776348 -2.266192 -1.314076 7.787141 -0.751929 -0.076162 0.409617 -14.346356 1.279929 -18.447786 0.309557 7.573771 20.876687 -0.846219 5.909709 -2.864542 0.002569 -0.326682 -0.897555 -1.343644 -0.287152 -0.261796 19.908653 3.550945 -17.493646 -0.883364 -8.026928 22.530565 -0.088608 -1.232753 -5.405193 -0.251248 -3.225225 8.906450 1.897519 -0.333435 0.009581 1.538806 -0.437404 -1.574832 1.029428 -0.573600 7.914943 -3.313696 -0.583908 -10.361064 2.510708 0.076260 31.915966 0.504289 0.472836 12.144197 9.322167 5.537306 0.472608 -97.405017 -8.947505 38.265648 8.467211 -18.378716 -1.401192 0.015647 -0.708190 -4.334152 25.713554 -4.884363 -1.974191 -7.125000 0.000000 0.000000 -0.665365 25.432563 0.315147 -8.378233 -4.488813 0.169069 95.222516 7.630606 20.571192 -10.459075 22.406720 -2.309503 0.608880 0.841560 30.847730 -22.206179 -23.625761 9.736120 7.125000 0.000000 0.000000 7.880369 -56.268164 -2.187221
0.644501 17.666466 -14.807374 -2.358597 -1.358712 7.950050 -0.718517 -0.114919 0.356055 -14.260342 1.193925 -19.048297 0.402454 7.812051 21.540284 -0.840692 5.891699 -3.059104 0.003210 -0.365251 -1.003637 -1.370266 -0.258587 -0.271203 19.984004 3.701837 -18.014775 -0.947409 -8.195002 22.988444 -0.106110 -1.147392 -5.504161 -0.244972 -3.184897 8.793960 2.002868 -0.319076 0.309161 1.553136 -0.408819 -1.547539 1.033972 -0.556023 7.871299 -3.297970 -0.569009 -10.410193 2.483448 0.104756 31.555389 0.483728 0.481131 12.012065 9.323385 5.529426 0.471188 -97.353680 -8.945574 38.180742 8.501184 -18.435301 -1.411084 0.017024 -0.708669 -4.560885 25.816666 -4.949431 -2.014231 -7.125000 0.000000 0.000000 -0.587800 25.357746 0.279423 -8.370410 -4.481166 0.166208 95.122078 7.643291 20.516524 -10.490844 22.451169 -2.322006 0.610093 0.842264 30.674411 -22.293903 -23.624672 9.779571 7.125000 0.000000 0.000000 7.783121 -56.287275 -2.163624
